<svg xmlns="http://www.w3.org/2000/svg" viewBox="0 0 1200 900" role="img" aria-label="창원 룰루랄라 나이트 DJ 부스">
  <defs>
    <linearGradient id="bgDJ" x1="0" y1="0" x2="0" y2="1">
      <stop offset="0" stop-color="#1c0d2b"/>
      <stop offset="1" stop-color="#0b0410"/>
    </linearGradient>
    <radialGradient id="laserPink" cx="0.5" cy="0" r="0.8">
      <stop offset="0" stop-color="#ff2ea6" stop-opacity="0.85"/>
      <stop offset="1" stop-color="#ff2ea6" stop-opacity="0"/>
    </radialGradient>
    <radialGradient id="laserViolet" cx="0.5" cy="0" r="0.8">
      <stop offset="0" stop-color="#7c4dff" stop-opacity="0.85"/>
      <stop offset="1" stop-color="#7c4dff" stop-opacity="0"/>
    </radialGradient>
    <filter id="glowD" x="-20%" y="-20%" width="140%" height="140%">
      <feGaussianBlur stdDeviation="5" result="b"/>
      <feMerge><feMergeNode in="b"/><feMergeNode in="SourceGraphic"/></feMerge>
    </filter>
  </defs>

  <rect width="1200" height="900" fill="url(#bgDJ)"/>

  <!-- back wall LED video panel -->
  <rect x="120" y="80" width="960" height="320" fill="#0e0617" stroke="#3a1f54" stroke-width="3"/>
  <g>
    <text x="600" y="200" text-anchor="middle" fill="#ff2ea6" font-family="Arial Black, sans-serif" font-size="68" letter-spacing="14" font-weight="900" filter="url(#glowD)">RULULALA</text>
    <text x="600" y="260" text-anchor="middle" fill="#ffd166" font-family="Arial, sans-serif" font-size="22" letter-spacing="10">LIVE · TONIGHT</text>
    <!-- waveform -->
    <g fill="#7c4dff" opacity="0.85">
      <rect x="180" y="320" width="6" height="40"/>
      <rect x="192" y="305" width="6" height="55"/>
      <rect x="204" y="295" width="6" height="65"/>
      <rect x="216" y="315" width="6" height="45"/>
      <rect x="228" y="300" width="6" height="60"/>
      <rect x="240" y="290" width="6" height="70"/>
      <rect x="252" y="310" width="6" height="50"/>
      <rect x="264" y="320" width="6" height="40"/>
      <rect x="276" y="300" width="6" height="60"/>
      <rect x="288" y="290" width="6" height="70"/>
      <rect x="300" y="310" width="6" height="50"/>
      <rect x="312" y="305" width="6" height="55"/>
      <rect x="324" y="320" width="6" height="40"/>
      <rect x="336" y="295" width="6" height="65"/>
      <rect x="348" y="300" width="6" height="60"/>
      <rect x="360" y="310" width="6" height="50"/>
      <rect x="372" y="320" width="6" height="40"/>
      <rect x="384" y="305" width="6" height="55"/>
      <rect x="396" y="290" width="6" height="70"/>
      <rect x="408" y="310" width="6" height="50"/>
      <rect x="420" y="320" width="6" height="40"/>
      <rect x="432" y="295" width="6" height="65"/>
      <rect x="444" y="305" width="6" height="55"/>
      <rect x="456" y="315" width="6" height="45"/>
      <rect x="468" y="300" width="6" height="60"/>
      <rect x="480" y="290" width="6" height="70"/>
      <rect x="492" y="310" width="6" height="50"/>
      <rect x="504" y="320" width="6" height="40"/>
      <rect x="516" y="305" width="6" height="55"/>
      <rect x="528" y="295" width="6" height="65"/>
      <rect x="540" y="310" width="6" height="50"/>
      <rect x="552" y="315" width="6" height="45"/>
      <rect x="564" y="320" width="6" height="40"/>
      <rect x="576" y="300" width="6" height="60"/>
      <rect x="588" y="290" width="6" height="70"/>
      <rect x="600" y="310" width="6" height="50"/>
      <rect x="612" y="305" width="6" height="55"/>
      <rect x="624" y="295" width="6" height="65"/>
      <rect x="636" y="320" width="6" height="40"/>
      <rect x="648" y="310" width="6" height="50"/>
      <rect x="660" y="300" width="6" height="60"/>
      <rect x="672" y="295" width="6" height="65"/>
      <rect x="684" y="310" width="6" height="50"/>
      <rect x="696" y="320" width="6" height="40"/>
      <rect x="708" y="305" width="6" height="55"/>
      <rect x="720" y="300" width="6" height="60"/>
      <rect x="732" y="290" width="6" height="70"/>
      <rect x="744" y="310" width="6" height="50"/>
      <rect x="756" y="320" width="6" height="40"/>
      <rect x="768" y="305" width="6" height="55"/>
      <rect x="780" y="295" width="6" height="65"/>
      <rect x="792" y="310" width="6" height="50"/>
      <rect x="804" y="320" width="6" height="40"/>
      <rect x="816" y="300" width="6" height="60"/>
      <rect x="828" y="290" width="6" height="70"/>
      <rect x="840" y="310" width="6" height="50"/>
      <rect x="852" y="320" width="6" height="40"/>
      <rect x="864" y="305" width="6" height="55"/>
      <rect x="876" y="295" width="6" height="65"/>
      <rect x="888" y="310" width="6" height="50"/>
      <rect x="900" y="320" width="6" height="40"/>
      <rect x="912" y="305" width="6" height="55"/>
      <rect x="924" y="300" width="6" height="60"/>
      <rect x="936" y="295" width="6" height="65"/>
      <rect x="948" y="310" width="6" height="50"/>
      <rect x="960" y="320" width="6" height="40"/>
      <rect x="972" y="305" width="6" height="55"/>
      <rect x="984" y="320" width="6" height="40"/>
      <rect x="996" y="310" width="6" height="50"/>
      <rect x="1008" y="305" width="6" height="55"/>
    </g>
  </g>

  <!-- laser beams -->
  <path d="M0,420 L600,560 L1200,420 L1200,440 L600,580 L0,440 Z" fill="url(#laserPink)" opacity="0.55"/>
  <path d="M0,460 L600,600 L1200,460 L1200,480 L600,620 L0,480 Z" fill="url(#laserViolet)" opacity="0.4"/>

  <!-- DJ booth front desk -->
  <rect x="280" y="560" width="640" height="220" fill="#15081e" stroke="#3a1f54" stroke-width="2"/>
  <rect x="280" y="560" width="640" height="20" fill="#1a0a26"/>
  <!-- LED strip on front -->
  <rect x="290" y="585" width="620" height="6" fill="#ff2ea6"/>
  <rect x="290" y="595" width="620" height="6" fill="#7c4dff" opacity="0.7"/>

  <!-- CDJ left -->
  <g>
    <rect x="320" y="610" width="160" height="120" rx="10" fill="#0b0410" stroke="#7c4dff" stroke-width="2"/>
    <circle cx="400" cy="670" r="44" fill="#15081e" stroke="#b9a8d3" stroke-width="2"/>
    <circle cx="400" cy="670" r="14" fill="#ff2ea6"/>
    <rect x="330" y="710" width="140" height="8" fill="#1a0a26"/>
  </g>

  <!-- mixer center -->
  <g>
    <rect x="510" y="610" width="180" height="120" rx="8" fill="#0b0410" stroke="#ffd166" stroke-width="2"/>
    <g fill="#ffd166">
      <rect x="525" y="630" width="14" height="6"/>
      <rect x="525" y="650" width="14" height="6"/>
      <rect x="525" y="670" width="14" height="6"/>
      <rect x="650" y="630" width="14" height="6"/>
      <rect x="650" y="650" width="14" height="6"/>
      <rect x="650" y="670" width="14" height="6"/>
    </g>
    <!-- faders -->
    <g fill="#1a0a26" stroke="#b9a8d3">
      <rect x="555" y="630" width="8" height="80"/>
      <rect x="575" y="630" width="8" height="80"/>
      <rect x="595" y="630" width="8" height="80"/>
      <rect x="615" y="630" width="8" height="80"/>
      <rect x="635" y="630" width="8" height="80"/>
    </g>
    <g fill="#ff2ea6">
      <rect x="553" y="660" width="12" height="6"/>
      <rect x="573" y="650" width="12" height="6"/>
      <rect x="593" y="670" width="12" height="6"/>
      <rect x="613" y="655" width="12" height="6"/>
      <rect x="633" y="665" width="12" height="6"/>
    </g>
  </g>

  <!-- CDJ right -->
  <g>
    <rect x="720" y="610" width="160" height="120" rx="10" fill="#0b0410" stroke="#7c4dff" stroke-width="2"/>
    <circle cx="800" cy="670" r="44" fill="#15081e" stroke="#b9a8d3" stroke-width="2"/>
    <circle cx="800" cy="670" r="14" fill="#7c4dff"/>
    <rect x="730" y="710" width="140" height="8" fill="#1a0a26"/>
  </g>

  <!-- headphones silhouette -->
  <g fill="none" stroke="#ffd166" stroke-width="4" stroke-linecap="round">
    <path d="M180,750 Q220,700 270,750"/>
    <circle cx="180" cy="765" r="18" fill="#1a0a26"/>
    <circle cx="270" cy="765" r="18" fill="#1a0a26"/>
  </g>

  <!-- header text -->
  <g filter="url(#glowD)">
    <text x="600" y="850" text-anchor="middle" fill="#ff77c8" font-family="Arial Black, sans-serif" font-size="22" letter-spacing="8" font-weight="900">DJ BOOTH</text>
  </g>
</svg>
