<svg xmlns="http://www.w3.org/2000/svg" viewBox="0 0 1200 900" role="img" aria-label="창원 룰루랄라 나이트 바 카운터">
  <defs>
    <linearGradient id="bgBar" x1="0" y1="0" x2="0" y2="1">
      <stop offset="0" stop-color="#1c0d2b"/>
      <stop offset="1" stop-color="#0b0410"/>
    </linearGradient>
    <linearGradient id="counter" x1="0" y1="0" x2="0" y2="1">
      <stop offset="0" stop-color="#2a153e"/>
      <stop offset="1" stop-color="#0e0617"/>
    </linearGradient>
    <radialGradient id="halo" cx="0.5" cy="0" r="0.8">
      <stop offset="0" stop-color="#ffd166" stop-opacity="0.55"/>
      <stop offset="1" stop-color="#ffd166" stop-opacity="0"/>
    </radialGradient>
    <filter id="glowB" x="-20%" y="-20%" width="140%" height="140%">
      <feGaussianBlur stdDeviation="4" result="b"/>
      <feMerge><feMergeNode in="b"/><feMergeNode in="SourceGraphic"/></feMerge>
    </filter>
  </defs>

  <rect width="1200" height="900" fill="url(#bgBar)"/>

  <!-- shelves -->
  <g>
    <rect x="60" y="160" width="1080" height="10" fill="#3a1f54"/>
    <rect x="60" y="280" width="1080" height="10" fill="#3a1f54"/>
    <rect x="60" y="400" width="1080" height="10" fill="#3a1f54"/>
  </g>

  <!-- back lighting strips -->
  <g filter="url(#glowB)">
    <rect x="60" y="175" width="1080" height="3" fill="#ff2ea6"/>
    <rect x="60" y="295" width="1080" height="3" fill="#7c4dff"/>
    <rect x="60" y="415" width="1080" height="3" fill="#ffd166"/>
  </g>

  <!-- bottles row 1 (top shelf) -->
  <g>
    <g><rect x="100" y="100" width="34" height="60" rx="4" fill="#0e0617" stroke="#ffd166"/><rect x="110" y="80" width="14" height="22" fill="#0e0617" stroke="#ffd166"/></g>
    <g><rect x="160" y="90" width="30" height="70" rx="4" fill="#0e0617" stroke="#ff2ea6"/><rect x="168" y="72" width="14" height="20" fill="#0e0617" stroke="#ff2ea6"/></g>
    <g><rect x="220" y="100" width="34" height="60" rx="4" fill="#0e0617" stroke="#7c4dff"/><rect x="230" y="80" width="14" height="22" fill="#0e0617" stroke="#7c4dff"/></g>
    <g><rect x="285" y="95" width="30" height="65" rx="4" fill="#0e0617" stroke="#ffd166"/><rect x="293" y="76" width="14" height="22" fill="#0e0617" stroke="#ffd166"/></g>
    <g><rect x="345" y="105" width="34" height="55" rx="4" fill="#0e0617" stroke="#ff2ea6"/><rect x="355" y="85" width="14" height="22" fill="#0e0617" stroke="#ff2ea6"/></g>
    <g><rect x="410" y="90" width="30" height="70" rx="4" fill="#0e0617" stroke="#7c4dff"/><rect x="418" y="70" width="14" height="22" fill="#0e0617" stroke="#7c4dff"/></g>
    <g><rect x="470" y="100" width="34" height="60" rx="4" fill="#0e0617" stroke="#ffd166"/><rect x="480" y="80" width="14" height="22" fill="#0e0617" stroke="#ffd166"/></g>
    <g><rect x="535" y="95" width="30" height="65" rx="4" fill="#0e0617" stroke="#ff2ea6"/><rect x="543" y="76" width="14" height="22" fill="#0e0617" stroke="#ff2ea6"/></g>
    <g><rect x="595" y="105" width="34" height="55" rx="4" fill="#0e0617" stroke="#7c4dff"/><rect x="605" y="85" width="14" height="22" fill="#0e0617" stroke="#7c4dff"/></g>
    <g><rect x="660" y="90" width="30" height="70" rx="4" fill="#0e0617" stroke="#ffd166"/><rect x="668" y="70" width="14" height="22" fill="#0e0617" stroke="#ffd166"/></g>
    <g><rect x="720" y="100" width="34" height="60" rx="4" fill="#0e0617" stroke="#ff2ea6"/><rect x="730" y="80" width="14" height="22" fill="#0e0617" stroke="#ff2ea6"/></g>
    <g><rect x="785" y="95" width="30" height="65" rx="4" fill="#0e0617" stroke="#7c4dff"/><rect x="793" y="76" width="14" height="22" fill="#0e0617" stroke="#7c4dff"/></g>
    <g><rect x="845" y="105" width="34" height="55" rx="4" fill="#0e0617" stroke="#ffd166"/><rect x="855" y="85" width="14" height="22" fill="#0e0617" stroke="#ffd166"/></g>
    <g><rect x="910" y="90" width="30" height="70" rx="4" fill="#0e0617" stroke="#ff2ea6"/><rect x="918" y="70" width="14" height="22" fill="#0e0617" stroke="#ff2ea6"/></g>
    <g><rect x="970" y="100" width="34" height="60" rx="4" fill="#0e0617" stroke="#7c4dff"/><rect x="980" y="80" width="14" height="22" fill="#0e0617" stroke="#7c4dff"/></g>
    <g><rect x="1035" y="95" width="30" height="65" rx="4" fill="#0e0617" stroke="#ffd166"/><rect x="1043" y="76" width="14" height="22" fill="#0e0617" stroke="#ffd166"/></g>
  </g>

  <!-- bottles row 2 -->
  <g transform="translate(0,120)">
    <g><rect x="100" y="100" width="34" height="60" rx="4" fill="#0e0617" stroke="#ff2ea6"/></g>
    <g><rect x="160" y="90" width="30" height="70" rx="4" fill="#0e0617" stroke="#7c4dff"/></g>
    <g><rect x="220" y="100" width="34" height="60" rx="4" fill="#0e0617" stroke="#ffd166"/></g>
    <g><rect x="285" y="95" width="30" height="65" rx="4" fill="#0e0617" stroke="#ff2ea6"/></g>
    <g><rect x="345" y="105" width="34" height="55" rx="4" fill="#0e0617" stroke="#7c4dff"/></g>
    <g><rect x="410" y="90" width="30" height="70" rx="4" fill="#0e0617" stroke="#ffd166"/></g>
    <g><rect x="470" y="100" width="34" height="60" rx="4" fill="#0e0617" stroke="#ff2ea6"/></g>
    <g><rect x="535" y="95" width="30" height="65" rx="4" fill="#0e0617" stroke="#7c4dff"/></g>
    <g><rect x="595" y="105" width="34" height="55" rx="4" fill="#0e0617" stroke="#ffd166"/></g>
    <g><rect x="660" y="90" width="30" height="70" rx="4" fill="#0e0617" stroke="#ff2ea6"/></g>
    <g><rect x="720" y="100" width="34" height="60" rx="4" fill="#0e0617" stroke="#7c4dff"/></g>
    <g><rect x="785" y="95" width="30" height="65" rx="4" fill="#0e0617" stroke="#ffd166"/></g>
    <g><rect x="845" y="105" width="34" height="55" rx="4" fill="#0e0617" stroke="#ff2ea6"/></g>
    <g><rect x="910" y="90" width="30" height="70" rx="4" fill="#0e0617" stroke="#7c4dff"/></g>
    <g><rect x="970" y="100" width="34" height="60" rx="4" fill="#0e0617" stroke="#ffd166"/></g>
    <g><rect x="1035" y="95" width="30" height="65" rx="4" fill="#0e0617" stroke="#ff2ea6"/></g>
  </g>

  <!-- bottles row 3 -->
  <g transform="translate(0,240)">
    <g><rect x="100" y="100" width="34" height="60" rx="4" fill="#0e0617" stroke="#7c4dff"/></g>
    <g><rect x="160" y="90" width="30" height="70" rx="4" fill="#0e0617" stroke="#ffd166"/></g>
    <g><rect x="220" y="100" width="34" height="60" rx="4" fill="#0e0617" stroke="#ff2ea6"/></g>
    <g><rect x="285" y="95" width="30" height="65" rx="4" fill="#0e0617" stroke="#7c4dff"/></g>
    <g><rect x="345" y="105" width="34" height="55" rx="4" fill="#0e0617" stroke="#ffd166"/></g>
    <g><rect x="410" y="90" width="30" height="70" rx="4" fill="#0e0617" stroke="#ff2ea6"/></g>
    <g><rect x="470" y="100" width="34" height="60" rx="4" fill="#0e0617" stroke="#7c4dff"/></g>
    <g><rect x="535" y="95" width="30" height="65" rx="4" fill="#0e0617" stroke="#ffd166"/></g>
    <g><rect x="595" y="105" width="34" height="55" rx="4" fill="#0e0617" stroke="#ff2ea6"/></g>
    <g><rect x="660" y="90" width="30" height="70" rx="4" fill="#0e0617" stroke="#7c4dff"/></g>
    <g><rect x="720" y="100" width="34" height="60" rx="4" fill="#0e0617" stroke="#ffd166"/></g>
    <g><rect x="785" y="95" width="30" height="65" rx="4" fill="#0e0617" stroke="#ff2ea6"/></g>
    <g><rect x="845" y="105" width="34" height="55" rx="4" fill="#0e0617" stroke="#7c4dff"/></g>
    <g><rect x="910" y="90" width="30" height="70" rx="4" fill="#0e0617" stroke="#ffd166"/></g>
    <g><rect x="970" y="100" width="34" height="60" rx="4" fill="#0e0617" stroke="#ff2ea6"/></g>
    <g><rect x="1035" y="95" width="30" height="65" rx="4" fill="#0e0617" stroke="#7c4dff"/></g>
  </g>

  <!-- counter -->
  <rect x="0" y="540" width="1200" height="40" fill="#3a1f54"/>
  <rect x="0" y="580" width="1200" height="320" fill="url(#counter)"/>
  <!-- LED strip on counter front -->
  <g filter="url(#glowB)">
    <rect x="0" y="588" width="1200" height="4" fill="#ff2ea6"/>
  </g>

  <!-- pendant halo over counter -->
  <ellipse cx="300" cy="540" rx="200" ry="80" fill="url(#halo)"/>
  <ellipse cx="900" cy="540" rx="200" ry="80" fill="url(#halo)"/>

  <!-- glasses on counter -->
  <g fill="none" stroke="#ffd166" stroke-width="2">
    <path d="M180,500 L172,540 L228,540 L220,500 Z"/>
    <path d="M260,500 L252,540 L308,540 L300,500 Z"/>
    <path d="M340,500 L332,540 L388,540 L380,500 Z"/>
    <path d="M820,500 L812,540 L868,540 L860,500 Z"/>
    <path d="M900,500 L892,540 L948,540 L940,500 Z"/>
    <path d="M980,500 L972,540 L1028,540 L1020,500 Z"/>
  </g>
  <g fill="#ffd166" opacity="0.4">
    <rect x="178" y="510" width="48" height="22"/>
    <rect x="258" y="510" width="48" height="22"/>
    <rect x="338" y="510" width="48" height="22"/>
    <rect x="818" y="510" width="48" height="22"/>
    <rect x="898" y="510" width="48" height="22"/>
    <rect x="978" y="510" width="48" height="22"/>
  </g>

  <!-- bar stools -->
  <g fill="#0e0617" stroke="#3a1f54" stroke-width="2">
    <rect x="180" y="700" width="80" height="20" rx="6"/>
    <line x1="220" y1="720" x2="220" y2="820"/>
    <ellipse cx="220" cy="820" rx="36" ry="8" fill="#3a1f54"/>

    <rect x="380" y="700" width="80" height="20" rx="6"/>
    <line x1="420" y1="720" x2="420" y2="820"/>
    <ellipse cx="420" cy="820" rx="36" ry="8" fill="#3a1f54"/>

    <rect x="580" y="700" width="80" height="20" rx="6"/>
    <line x1="620" y1="720" x2="620" y2="820"/>
    <ellipse cx="620" cy="820" rx="36" ry="8" fill="#3a1f54"/>

    <rect x="780" y="700" width="80" height="20" rx="6"/>
    <line x1="820" y1="720" x2="820" y2="820"/>
    <ellipse cx="820" cy="820" rx="36" ry="8" fill="#3a1f54"/>

    <rect x="980" y="700" width="80" height="20" rx="6"/>
    <line x1="1020" y1="720" x2="1020" y2="820"/>
    <ellipse cx="1020" cy="820" rx="36" ry="8" fill="#3a1f54"/>
  </g>

  <!-- header text -->
  <g filter="url(#glowB)">
    <text x="600" y="870" text-anchor="middle" fill="#ff77c8" font-family="Arial Black, sans-serif" font-size="22" letter-spacing="8" font-weight="900">BAR COUNTER</text>
  </g>
</svg>
